# xmcd
#
# Track frame offsets:
#	150
#	16623
#	36225
#	49396
#	70657
#	100074
#	127747
#	137623
#	157222
#	175371
#	190067
#	207996
#	222667
#	241427
#	261797
#	274843
#	291021
#	305462
#	319914
#
# Disc length: 4442 seconds
# Revision: 1
# Processed by: cddbd v1.5.2PL0 Copyright (c) Steve Scherf et al.
# Submitted via: dBpowerAMP V12.0
#
DISCID=1d115813
DTITLE=Various Artist - DJ Marky and Friends: The Master Plan
DYEAR=2007
DGENRE=D&B
TTITLE0=Random Movement - The Things You Do
TTITLE1=Calibre - Bluetop
TTITLE2=Seba and Krazy - Arsenic
TTITLE3=DJ Marky and XRS - Distant Lover
TTITLE4=Bungle - 25th Floor (DJ Marky and Bungle RMX)
TTITLE5=Vice Versa - She's The One
TTITLE6=Random Movement - Ruthless Machine
TTITLE7=BCee and Lomax - One Year On
TTITLE8=Random Movement and Focus - Shattered Dreams
TTITLE9=Zero Tolerance and Beta 2 - 5 Spot
TTITLE10=DJ Marky, Makoto and A-Sides - Tonight
TTITLE11=DJ Marky and Artificial Intelligence (Feat. Ben Westbeech) - Shame
TTITLE12=Random Movement - Her Song
TTITLE13=DJ Marky and Makoto - Secret Place
TTITLE14=The Invaderz - Just Can't Give You Up
TTITLE15=Utah Jazz Vs Soulmatic - Untitled
TTITLE16=Random Movement - Psychedelic Dreampipe
TTITLE17=C.A.B.L.E. - New Infection
TTITLE18=A-Sides - White Riesling
EXTD=
EXTT0=
EXTT1=
EXTT2=
EXTT3=
EXTT4=
EXTT5=
EXTT6=
EXTT7=
EXTT8=
EXTT9=
EXTT10=
EXTT11=
EXTT12=
EXTT13=
EXTT14=
EXTT15=
EXTT16=
EXTT17=
EXTT18=
PLAYORDER=
